TITLE ""
FILE "Disc6Track24.mp3" MP3
  TRACK 01 AUDIO
    TITLE "Disc6Track24_01"
    INDEX 01 00:00:00
  TRACK 02 AUDIO
    TITLE "Disc6Track24_02"
    INDEX 01 00:03:34
  TRACK 03 AUDIO
    TITLE "Disc6Track24_03"
    INDEX 01 00:03:65
  TRACK 04 AUDIO
    TITLE "Disc6Track24_04"
    INDEX 01 00:05:13
  TRACK 05 AUDIO
    TITLE "Disc6Track24_05"
    INDEX 01 00:07:71
  TRACK 06 AUDIO
    TITLE "Disc6Track24_06"
    INDEX 01 00:09:15
  TRACK 07 AUDIO
    TITLE "Disc6Track24_07"
    INDEX 01 00:11:47
  TRACK 08 AUDIO
    TITLE "Disc6Track24_08"
    INDEX 01 00:12:02
  TRACK 09 AUDIO
    TITLE "Disc6Track24_09"
    INDEX 01 00:13:33
  TRACK 10 AUDIO
    TITLE "Disc6Track24_10"
    INDEX 01 00:16:01
  TRACK 11 AUDIO
    TITLE "Disc6Track24_11"
    INDEX 01 00:17:30
  TRACK 12 AUDIO
    TITLE "Disc6Track24_12"
    INDEX 01 00:19:33
  TRACK 13 AUDIO
    TITLE "Disc6Track24_13"
    INDEX 01 00:19:63
  TRACK 14 AUDIO
    TITLE "Disc6Track24_14"
    INDEX 01 00:21:09
  TRACK 15 AUDIO
    TITLE "Disc6Track24_15"
    INDEX 01 00:23:66
  TRACK 16 AUDIO
    TITLE "Disc6Track24_16"
    INDEX 01 00:25:10
  TRACK 17 AUDIO
    TITLE "Disc6Track24_17"
    INDEX 01 00:29:67
  TRACK 18 AUDIO
    TITLE "Disc6Track24_18"
    INDEX 01 00:30:23
  TRACK 19 AUDIO
    TITLE "Disc6Track24_19"
    INDEX 01 00:31:58
  TRACK 20 AUDIO
    TITLE "Disc6Track24_20"
    INDEX 01 00:33:12
  TRACK 21 AUDIO
    TITLE "Disc6Track24_21"
    INDEX 01 00:34:46
  TRACK 22 AUDIO
    TITLE "Disc6Track24_22"
    INDEX 01 00:37:62
  TRACK 23 AUDIO
    TITLE "Disc6Track24_23"
    INDEX 01 00:38:19
  TRACK 24 AUDIO
    TITLE "Disc6Track24_24"
    INDEX 01 00:39:42
  TRACK 25 AUDIO
    TITLE "Disc6Track24_25"
    INDEX 01 00:40:45
  TRACK 26 AUDIO
    TITLE "Disc6Track24_26"
    INDEX 01 00:41:68
  TRACK 27 AUDIO
    TITLE "Disc6Track24_27"
    INDEX 01 00:47:16
  TRACK 28 AUDIO
    TITLE "Disc6Track24_28"
    INDEX 01 00:47:45
  TRACK 29 AUDIO
    TITLE "Disc6Track24_29"
    INDEX 01 00:48:45
  TRACK 30 AUDIO
    TITLE "Disc6Track24_30"
    INDEX 01 00:50:38
  TRACK 31 AUDIO
    TITLE "Disc6Track24_31"
    INDEX 01 00:51:35
  TRACK 32 AUDIO
    TITLE "Disc6Track24_32"
    INDEX 01 00:55:64
  TRACK 33 AUDIO
    TITLE "Disc6Track24_33"
    INDEX 01 00:56:21
  TRACK 34 AUDIO
    TITLE "Disc6Track24_34"
    INDEX 01 00:57:36
  TRACK 35 AUDIO
    TITLE "Disc6Track24_35"
    INDEX 01 00:59:25
  TRACK 36 AUDIO
    TITLE "Disc6Track24_36"
    INDEX 01 01:00:42
  TRACK 37 AUDIO
    TITLE "Disc6Track24_37"
    INDEX 01 01:01:02
  TRACK 38 AUDIO
    TITLE "Disc6Track24_38"
    INDEX 01 01:02:11
  TRACK 39 AUDIO
    TITLE "Disc6Track24_39"
    INDEX 01 01:03:17
  TRACK 40 AUDIO
    TITLE "Disc6Track24_40"
    INDEX 01 01:04:24
  TRACK 41 AUDIO
    TITLE "Disc6Track24_41"
    INDEX 01 01:07:73
  TRACK 42 AUDIO
    TITLE "Disc6Track24_42"
    INDEX 01 01:08:28
  TRACK 43 AUDIO
    TITLE "Disc6Track24_43"
    INDEX 01 01:09:43
  TRACK 44 AUDIO
    TITLE "Disc6Track24_44"
    INDEX 01 01:12:04
  TRACK 45 AUDIO
    TITLE "Disc6Track24_45"
    INDEX 01 01:13:17
  TRACK 46 AUDIO
    TITLE "Disc6Track24_46"
    INDEX 01 01:19:39
  TRACK 47 AUDIO
    TITLE "Disc6Track24_47"
    INDEX 01 01:19:69
  TRACK 48 AUDIO
    TITLE "Disc6Track24_48"
    INDEX 01 01:21:26
  TRACK 49 AUDIO
    TITLE "Disc6Track24_49"
    INDEX 01 01:22:42
  TRACK 50 AUDIO
    TITLE "Disc6Track24_50"
    INDEX 01 01:23:74
  TRACK 51 AUDIO
    TITLE "Disc6Track24_51"
    INDEX 01 01:24:31
  TRACK 52 AUDIO
    TITLE "Disc6Track24_52"
    INDEX 01 01:26:10
  TRACK 53 AUDIO
    TITLE "Disc6Track24_53"
    INDEX 01 01:27:31
  TRACK 54 AUDIO
    TITLE "Disc6Track24_54"
    INDEX 01 01:29:02
  TRACK 55 AUDIO
    TITLE "Disc6Track24_55"
    INDEX 01 01:31:27
